# xmcd CD database file
#
# Track frame offsets:
#	150
#	10626
#	23015
#	34828
#	52913
#	69276
#	83648
#	102843
#	115315
#	126376
#
# Disc length: 1861 seconds
#
# Revision: 0
# Processed by: cddbd v1.5.2PL0 Copyright (c) Steve Scherf et al.
# Submitted via: CDex 1.96
#
DISCID=7107430a
DTITLE=Hank Williams Jr. - All My Rowdy Friends Are Coming Over: Great Tailgate Songs
DYEAR=2017
DGENRE=Country
TTITLE0=All My Rowdy Friends Are Coming Over For Monday Night Football
TTITLE1=Born To Boogie
TTITLE2=Dixie On My Mind
TTITLE3=Family Tradition
TTITLE4=Keep Your Hands To Yourself
TTITLE5=Whiskey Bent And Hell Bound
TTITLE6=A Country Boy Can Survive
TTITLE7=If Heaven Ain't A Lot Like Dixie
TTITLE8=Texas Women
TTITLE9=All My Rowdy Friends Are Coming Over Tonight
EXTD=YEAR: 2017
EXTT0=
EXTT1=
EXTT2=
EXTT3=
EXTT4=
EXTT5=
EXTT6=
EXTT7=
EXTT8=
EXTT9=
PLAYORDER=
